<!-- Generated by IcoMoon.io -->
<svg version="1.1" xmlns="http://www.w3.org/2000/svg" width="659" height="768" viewBox="0 0 659 768">
<title></title>
<g id="icomoon-ignore">
</g>
<path d="M438.957 388.88q0-45.356-31.519-77.644t-77.644-32.288-77.644 32.288-32.288 77.644 32.288 77.644 77.644 32.287 77.644-32.287 31.519-77.644zM658.82 341.986v95.325q0 5.381-3.075 9.994t-8.456 5.381l-79.95 12.3q-7.688 23.063-16.144 39.206 14.606 20.756 45.356 59.194 4.612 4.612 4.612 9.994t-3.844 9.994q-11.531 16.144-42.281 46.894t-40.744 29.981q-5.381 0-10.762-3.844l-59.194-46.125q-19.219 9.994-39.206 16.144-6.919 58.425-12.3 79.95-3.075 12.3-15.375 12.3h-95.325q-6.15 0-10.763-3.844t-4.612-9.225l-12.3-79.181q-20.756-6.919-38.438-16.144l-60.731 46.125q-4.613 3.844-10.762 3.844t-10.763-4.612q-53.813-49.2-70.725-72.263-3.075-3.844-3.075-9.994 0-4.612 3.844-9.225 6.15-9.225 21.525-28.444t23.063-30.75q-11.531-21.525-17.681-42.281l-78.412-11.531q-5.381-0.769-8.456-5.381t-3.844-9.994v-95.325q0-5.381 3.844-9.994t7.688-5.381l79.95-12.3q6.15-19.219 16.913-39.206-17.681-24.6-46.125-59.194-4.613-5.381-4.613-10.762 0-3.844 3.844-9.225 11.531-15.375 42.281-46.125t40.744-30.75q5.381 0 11.531 3.844l59.194 46.125q18.45-9.994 38.438-16.144 6.919-58.425 13.069-79.95 2.306-12.3 15.375-12.3h95.325q5.381 0 9.994 3.844t5.381 9.225l11.531 79.181q21.525 6.919 39.206 15.375l60.731-45.356q3.844-3.844 9.994-3.844 5.381 0 10.763 3.844 55.35 51.506 70.725 73.031 3.075 3.844 3.075 9.225t-3.075 9.994q-6.919 9.225-22.294 28.444t-23.063 30.75q11.531 21.525 17.681 41.512l78.413 12.3q5.381 0.769 9.225 5.381t3.075 9.994z"></path>
</svg>
