<!-- Generated by IcoMoon.io -->
<svg version="1.1" xmlns="http://www.w3.org/2000/svg" width="768" height="768" viewBox="0 0 768 768">
<title></title>
<g id="icomoon-ignore">
</g>
<path fill="#000" d="M384 114c-163.2 0-312 93.6-384 240 103.2 212.4 358.8 300 571.2 196.8 85.2-42 154.8-111.6 196.8-196.8-72-146.4-220.8-240-384-240zM196.8 495.6c-60-33.6-109.2-82.8-142.8-141.6 67.2-118.8 193.2-192 330-192s262.8 73.2 330 192c-104.4 182.4-336 246-517.2 141.6zM385.2 208.8c0 0-1.2 0 0 0-81.6-1.2-146.4 63.6-147.6 144 0 80.4 63.6 145.2 144 146.4 80.4 0 145.2-63.6 146.4-144 0 0 0-1.2 0-1.2 0-79.2-63.6-144-142.8-145.2zM336 354c-26.4 0-48-21.6-48-48s21.6-48 48-48 48 21.6 48 48-21.6 48-48 48z"></path>
</svg>
