<!-- Generated by IcoMoon.io -->
<svg version="1.1" xmlns="http://www.w3.org/2000/svg" width="623" height="768" viewBox="0 0 623 768">
<title></title>
<g id="icomoon-ignore">
</g>
<path d="M312.112 77.536c174.506 0 311.344 138.375 311.344 310.575 0 173.738-136.837 312.113-311.344 312.113-172.969 0-312.112-138.375-312.112-312.113 0-172.2 139.144-310.575 312.112-310.575zM329.794 641.799c49.969 0 76.875-86.869 89.175-129.919-29.981 3.075-59.194 4.612-89.175 5.381v124.538zM230.625 578.762c14.606 34.594 36.9 63.037 62.269 63.037v-124.537c-29.212-0.769-59.194-2.306-88.406-5.381 6.15 24.6 14.606 46.894 26.138 66.881zM59.963 423.473c12.3 14.606 43.819 33.825 101.475 43.819-3.844-23.831-5.381-50.737-5.381-76.875 0-19.219 0.769-34.594 2.306-52.275-43.819-9.225-69.956-15.375-89.944-24.6-6.919 23.063-10.763 49.2-10.763 74.569 0 12.3 0 24.6 2.306 35.362zM190.65 390.417c0 28.444 1.538 57.656 5.381 83.794 33.056 6.15 64.575 8.456 96.862 9.994v-136.069c-34.594-0.769-69.187-2.306-101.475-6.15 0 16.913-0.769 31.519-0.769 48.431zM291.356 135.961c-43.050 17.681-79.95 84.563-95.325 172.969 31.519 3.075 64.575 4.612 96.862 6.15v-179.119h-1.537zM354.394 149.798c-8.456-6.15-17.681-13.837-24.6-13.837v179.119c33.825-1.538 65.344-3.075 97.631-6.15-12.3-69.188-39.975-129.919-73.031-159.131zM329.794 484.204c33.825-1.537 65.344-3.844 96.862-9.225 4.612-25.369 6.15-55.35 6.15-84.563 0-16.913 0-31.519-1.537-47.663-32.287 3.075-66.112 4.613-101.475 5.381v136.069zM465.094 338.142c2.306 17.681 2.306 33.056 2.306 52.275 0 26.138-2.306 53.813-5.381 78.412 99.938-16.912 103.781-39.975 103.781-80.719 0-24.6-3.844-49.969-11.531-73.031-17.681 7.688-50.738 19.219-89.175 23.063zM541.201 281.255c-26.906-59.963-77.644-107.625-137.606-129.15 29.213 37.669 46.894 90.713 56.887 152.981 51.506-9.225 73.031-18.45 80.719-23.831zM132.994 209.761c-22.294 20.756-38.437 45.356-49.969 70.725 8.456 7.688 23.063 8.456 79.181 23.831 10.762-61.5 29.213-112.238 57.656-150.675-32.287 15.375-61.5 28.444-86.869 56.119zM132.994 567.23c23.063 25.369 51.506 42.281 81.488 55.35-22.294-30.75-36.9-70.725-46.125-116.85-38.438-8.456-73.031-19.219-96.094-31.519 14.606 35.363 32.288 67.65 60.731 93.019zM491.232 567.23c26.906-24.6 45.356-55.35 57.656-89.175-25.369 11.531-57.656 21.525-93.019 29.213-10.763 46.125-24.6 83.025-47.662 115.313 29.981-13.069 59.963-29.981 83.025-55.35z"></path>
</svg>
