<!-- Generated by IcoMoon.io -->
<svg version="1.1" xmlns="http://www.w3.org/2000/svg" width="659" height="768" viewBox="0 0 659 768">
<title></title>
<g id="icomoon-ignore">
</g>
<path d="M156.056 663.324l38.438-39.206-100.706-100.706-39.206 39.206v46.125h55.35v54.581h46.125zM379.763 265.111q0-9.225-9.225-9.225-3.844 0-6.919 3.075l-232.931 232.162q-3.075 3.075-3.075 7.688 0 9.225 9.994 9.225 3.844 0 6.919-3.075l232.931-232.163q2.306-3.075 2.306-7.688zM356.7 182.855l178.35 178.35-356.7 357.469h-178.35v-179.119zM649.594 224.367q0 22.294-15.375 38.438l-71.494 71.494-178.35-179.119 71.494-70.725q15.375-16.144 38.438-16.144 22.294 0 39.206 16.144l100.706 100.706q15.375 16.913 15.375 39.206z"></path>
</svg>
