<!-- Generated by IcoMoon.io -->
<svg version="1.1" xmlns="http://www.w3.org/2000/svg" width="615" height="768" viewBox="0 0 615 768">
<title></title>
<g id="icomoon-ignore">
</g>
<path d="M499.688 504.193q47.662 0 81.488 33.056t33.825 82.256q0 47.663-33.825 81.487t-81.488 33.825-81.488-33.825-33.825-81.487q0-4.612 0.769-10.763t0.769-9.225l-199.875-119.925q-32.288 24.6-70.725 24.6-47.662 0-81.488-33.825t-33.825-81.488 33.825-81.487 81.488-33.825q41.513 0 70.725 23.063l199.875-119.925q0-3.075-0.769-9.225t-0.769-9.225q0-47.662 33.825-81.487t81.488-33.825 81.488 33.056 33.825 82.256q0 47.662-33.825 81.488t-81.488 33.825q-39.975 0-69.188-24.6l-201.413 119.925q1.538 6.15 1.538 19.987 0 12.3-1.538 18.45l201.413 119.925q27.675-23.063 69.188-23.063z"></path>
</svg>
